<?xml version="1.0" encoding="UTF-8" standalone="no"?>
<!-- Created with Inkscape (http://www.inkscape.org/) -->

<svg
   xmlns:dc="http://purl.org/dc/elements/1.1/"
   xmlns:cc="http://creativecommons.org/ns#"
   xmlns:rdf="http://www.w3.org/1999/02/22-rdf-syntax-ns#"
   xmlns:svg="http://www.w3.org/2000/svg"
   xmlns="http://www.w3.org/2000/svg"
   xmlns:sodipodi="http://sodipodi.sourceforge.net/DTD/sodipodi-0.dtd"
   xmlns:inkscape="http://www.inkscape.org/namespaces/inkscape"
   width="60.410702"
   height="20.249319"
   viewBox="0 0 15.983665 5.3576323"
   version="1.1"
   id="svg23046"
   inkscape:version="0.92.0 r15299"
   sodipodi:docname="h-e-b.svg">
  <defs
     id="defs23040">
    <clipPath
       id="clipPath564"
       clipPathUnits="userSpaceOnUse">
      <path
         inkscape:connector-curvature="0"
         id="path562"
         d="m 0,479.456 h 352.557 v 104.53 H 0 Z" />
    </clipPath>
  </defs>
  <sodipodi:namedview
     id="base"
     pagecolor="#ffffff"
     bordercolor="#666666"
     borderopacity="1.0"
     inkscape:pageopacity="0.0"
     inkscape:pageshadow="2"
     inkscape:zoom="15.098299"
     inkscape:cx="29.70506"
     inkscape:cy="9.6244015"
     inkscape:document-units="mm"
     inkscape:current-layer="layer1"
     showgrid="false"
     fit-margin-top="0"
     fit-margin-left="0"
     fit-margin-right="0"
     fit-margin-bottom="0"
     units="px"
     inkscape:window-width="1280"
     inkscape:window-height="744"
     inkscape:window-x="-4"
     inkscape:window-y="-4"
     inkscape:window-maximized="1" />
  <metadata
     id="metadata23043">
    <rdf:RDF>
      <cc:Work
         rdf:about="">
        <dc:format>image/svg+xml</dc:format>
        <dc:type
           rdf:resource="http://purl.org/dc/dcmitype/StillImage" />
        <dc:title></dc:title>
      </cc:Work>
    </rdf:RDF>
  </metadata>
  <g
     inkscape:label="Layer 1"
     inkscape:groupmode="layer"
     id="layer1"
     transform="translate(-139.55118,-161.14127)">
    <g
       id="g23166"
       transform="translate(0.13229242,-0.13228932)">
      <path
         d="m 154.38895,165.6588 c -0.4378,0.45896 -1.02164,0.71049 -1.63865,0.71049 h -10.74314 c -0.61772,0 -1.20121,-0.25153 -1.64042,-0.71049 -0.43674,-0.45826 -0.67769,-1.06786 -0.67769,-1.71732 0,-1.33774 1.04034,-2.42676 2.31811,-2.42676 h 10.74314 c 0.61701,0 1.20085,0.25188 1.63865,0.71155 0.43674,0.4572 0.67733,1.06821 0.67733,1.71521 0,0.64946 -0.24059,1.25906 -0.67733,1.71732"
         style="fill:#ffffff;fill-opacity:1;fill-rule:nonzero;stroke:none;stroke-width:0.35277778"
         id="path568"
         inkscape:connector-curvature="0" />
      <path
         d="m 154.27965,165.56545 c -0.43145,0.43004 -1.00542,0.66781 -1.61255,0.66781 h -10.56851 c -0.6096,0 -1.18181,-0.23777 -1.6129,-0.66781 -0.43075,-0.4318 -0.66852,-1.00401 -0.66852,-1.61361 0,-1.25871 1.02341,-2.28 2.28142,-2.28 h 10.56851 c 0.60713,0 1.1811,0.23566 1.61255,0.6664 0.42968,0.4318 0.66922,1.004 0.66922,1.6136 0,0.6096 -0.23954,1.18181 -0.66922,1.61361 m 0.18838,-3.41489 c -0.48083,-0.48083 -1.12007,-0.74471 -1.80093,-0.74471 h -10.56851 c -1.40406,0 -2.54741,1.14018 -2.54741,2.54599 0,0.67945 0.26493,1.3201 0.74753,1.79988 0.48049,0.48154 1.11937,0.74718 1.79988,0.74718 h 10.56851 c 0.68086,0 1.3201,-0.26564 1.80093,-0.74718 0.48119,-0.47978 0.74507,-1.12043 0.74507,-1.79988 0,-0.68156 -0.26388,-1.32009 -0.74507,-1.80128"
         style="fill:#ee2824;fill-opacity:1;fill-rule:nonzero;stroke:none;stroke-width:0.35277778"
         id="path572"
         inkscape:connector-curvature="0" />
      <path
         d="m 152.667,161.89861 h -10.56887 c -1.13277,0 -2.0507,0.91899 -2.0507,2.05281 0,1.13313 0.91793,2.05282 2.0507,2.05282 H 152.667 c 1.13312,0 2.0507,-0.91969 2.0507,-2.05282 0,-1.13382 -0.91758,-2.05281 -2.0507,-2.05281"
         style="fill:#ee2824;fill-opacity:1;fill-rule:nonzero;stroke:none;stroke-width:0.35277778"
         id="path576"
         inkscape:connector-curvature="0" />
      <path
         d="m 155.00003,166.45177 c 0.14676,0 0.27023,-0.11254 0.27023,-0.26741 0,-0.15275 -0.12347,-0.26458 -0.27023,-0.26458 -0.14711,0 -0.27129,0.11183 -0.27129,0.26458 0,0.15487 0.12418,0.26741 0.27129,0.26741 m -0.21696,-0.26741 c 0,-0.12488 0.096,-0.2226 0.21696,-0.2226 0.12136,0 0.21661,0.0977 0.21661,0.2226 0,0.12877 -0.0953,0.22331 -0.21661,0.22331 -0.121,0 -0.21696,-0.0945 -0.21696,-0.22331 m 0.15981,0.0222 h 0.0536 l 0.0811,0.13264 h 0.0526 l -0.0854,-0.1344 c 0.0441,-0.008 0.0787,-0.0314 0.0787,-0.0857 0,-0.0596 -0.036,-0.0875 -0.10901,-0.0875 h -0.11712 v 0.30762 h 0.0455 z m 0,-0.0413 v -0.0952 h 0.0653 c 0.0314,0 0.066,0.0102 0.066,0.0462 0,0.0483 -0.0346,0.049 -0.0741,0.049 h -0.0572"
         style="fill:#ee2824;fill-opacity:1;fill-rule:evenodd;stroke:none;stroke-width:0.35277778"
         id="path580"
         inkscape:connector-curvature="0" />
      <path
         d="m 141.68376,162.81245 h 1.16276 l -0.0307,1.04634 h 0.70803 l -0.0441,-1.03223 h 1.13242 l -0.10478,2.31493 h -0.9532 l -0.0303,-0.80716 h -0.72108 l -0.0138,0.7934 h -0.98672 z"
         style="fill:#ffffff;fill-opacity:1;fill-rule:nonzero;stroke:none;stroke-width:0.35277778"
         id="path584"
         inkscape:connector-curvature="0" />
      <path
         d="m 146.08928,162.84109 h 2.89736 l -0.0303,0.63817 h -1.73319 v 0.39441 h 1.24354 l -0.0152,0.46073 -1.24425,-10e-4 v 0.3944 h 1.69051 l -0.0155,0.42898 h -2.68746 z"
         style="fill:#ffffff;fill-opacity:1;fill-rule:nonzero;stroke:none;stroke-width:0.35277778"
         id="path588"
         inkscape:connector-curvature="0" />
      <path
         d="m 144.97676,163.88972 h 0.71332 v 0.43004 h -0.69921 z"
         style="fill:#ffffff;fill-opacity:1;fill-rule:nonzero;stroke:none;stroke-width:0.35277778"
         id="path592"
         inkscape:connector-curvature="0" />
      <path
         inkscape:connector-curvature="0"
         id="path594"
         style="fill:#ffffff;fill-opacity:1;fill-rule:nonzero;stroke:none;stroke-width:0.35277778"
         d="m 149.32828,164.3344 h 0.68439 v -0.44485 h -0.68439 z" />
      <path
         d="m 150.52356,165.17186 -0.10442,-2.3308 h 2.18687 c 0.42721,0 0.75247,0.25435 0.75247,0.66569 0,0.45367 -0.36124,0.60819 -0.4893,0.61701 l 0.002,0.0183 c 0.21413,0.0473 0.34537,0.1584 0.34537,0.44168 0,0.55774 -0.52847,0.5902 -0.80998,0.5902 l -1.88313,-0.002"
         style="fill:#ffffff;fill-opacity:1;fill-rule:nonzero;stroke:none;stroke-width:0.35277778"
         id="path598"
         inkscape:connector-curvature="0" />
      <path
         d="m 151.56383,164.75121 v -0.42616 h 0.39687 c 0.11924,0 0.23707,0.0681 0.23707,0.20814 0,0.13547 -0.15028,0.21802 -0.31221,0.21802 h -0.32173"
         style="fill:#ee2824;fill-opacity:1;fill-rule:nonzero;stroke:none;stroke-width:0.35277778"
         id="path602"
         inkscape:connector-curvature="0" />
      <path
         d="m 151.57191,163.92973 v -0.49001 h 0.39546 c 0.15875,0 0.31609,0.09 0.31609,0.25294 0,0.13582 -0.1845,0.24095 -0.34819,0.23707 -0.13758,-0.003 -0.36336,0 -0.36336,0"
         style="fill:#ee2824;fill-opacity:1;fill-rule:nonzero;stroke:none;stroke-width:0.35277778"
         id="path606"
         inkscape:connector-curvature="0" />
    </g>
  </g>
</svg>
